<?xml version="1.0" encoding="UTF-8"?><svg xmlns="http://www.w3.org/2000/svg" viewBox="0 0 226.6 150.04"><defs><style>.d{fill:#e61a53;}.e{fill:#e61a52;}.f{fill:#e61c53;}.g{fill:#fff;}.h{fill:#00a3c7;}.i{fill:#00a2c6;}</style></defs><g id="a"/><g id="b"><g id="c"><g><g><path class="g" d="M163.67,101.61c1.06,.32,1.97,.6,2.83,1.04,1.81,.93,2.81,2.47,3.08,4.41,.56,4.04,.64,8.1-.16,12.1-.62,3.13-2.61,4.5-6.21,4.8-4.69,.39-9.39,.18-14.09,.23-1.28,.02-2.57-.03-3.85,.02-.6,.02-.76-.15-.75-.75,.02-6.09,.01-12.18,.01-18.27,0-7.37,0-14.74,0-22.11,0-.52,.07-.75,.68-.74,4.43,.06,8.87-.08,13.3,.1,1.73,.07,3.48,.23,5.11,.84,3.13,1.18,4.71,3.61,5.21,6.81,.35,2.27,.42,4.56,.11,6.85-.28,2.09-1.47,3.36-3.38,4.05-.58,.21-1.16,.38-1.88,.61Zm-8.24,9.53c0,1.76,0,3.53,0,5.29,0,.23-.12,.52,.33,.58,1.89,.23,3.09-.68,3.16-2.58,.07-2.05,.07-4.11,.03-6.17-.04-2.3-.61-2.81-2.94-2.89-.46-.02-.59,.1-.59,.57,.02,1.74,0,3.47,0,5.21Zm0-16.97c0,1.15,0,2.3,0,3.44q0,1.23,1.24,1.18c1.47-.06,1.94-.46,2.15-1.91,.22-1.51,.17-3.04,.11-4.56-.09-2.08-.8-2.71-2.88-2.76-.47-.01-.65,.08-.63,.6,.04,1.33,.01,2.67,.01,4Z"/><path class="g" d="M19.19,101.6c.45,.15,.8,.27,1.16,.37,2.68,.79,4.43,2.48,4.77,5.3,.46,3.91,.58,7.84-.16,11.72-.62,3.25-2.57,4.64-6.25,4.97-3.55,.31-7.1,.22-10.65,.23-2.4,.01-4.81-.02-7.21,.02-.66,.01-.84-.14-.84-.82,.03-6.71,.02-13.41,.02-20.12s.01-13.41-.02-20.12c0-.67,.17-.83,.83-.82,4.38,.07,8.76-.07,13.14,.1,1.36,.05,2.72,.2,4.04,.53,3.02,.73,5.03,2.59,5.92,5.58,.77,2.62,.76,5.31,.54,8.01-.2,2.52-1.66,3.94-3.98,4.63-.2,.06-.41,.12-.61,.18-.2,.06-.4,.13-.7,.23Zm-8.24,9.53c0,1.76,0,3.52,0,5.28,0,.21-.13,.48,.23,.59,1.25,.37,2.92-.59,3.12-1.86,.35-2.25,.16-4.52,.14-6.78-.02-2.35-.59-2.9-2.92-2.99-.46-.02-.59,.11-.58,.57,.02,1.73,0,3.46,0,5.2Zm0-16.98c0,1.17,0,2.34,0,3.52q0,1.18,1.21,1.13c1.51-.06,1.97-.49,2.16-1.98,.2-1.51,.19-3.03,.11-4.55-.11-1.99-.78-2.6-2.77-2.7-.53-.03-.75,.07-.72,.67,.05,1.3,.02,2.61,.02,3.92Z"/><path class="g" d="M173.45,103.2c.01-3.79-.04-7.58,.21-11.36,.35-5.31,3.47-8.94,8.71-10,3.31-.66,6.6-.57,9.75,.76,3.8,1.61,5.96,4.52,6.26,8.64,.48,6.74,.34,13.49,.2,20.24-.04,1.81,.02,3.65-.42,5.41-1.07,4.33-3.98,6.83-8.23,7.76-3.66,.81-7.3,.65-10.7-1.06-3.42-1.72-5.23-4.6-5.53-8.4-.32-3.99-.24-8-.25-12Zm10.9-.6c0,3.9-.03,7.05,.01,10.2,.02,1.3-.03,2.62,.21,3.91,.17,.87,.56,1.22,1.39,1.25,.84,.02,1.34-.37,1.53-1.22,.21-.97,.23-1.96,.23-2.95,.01-7.21,.01-14.42,0-21.63,0-.8-.04-1.6-.2-2.39-.16-.77-.6-1.16-1.38-1.17-.82-.01-1.37,.4-1.54,1.22-.09,.44-.15,.9-.17,1.35-.19,4.06-.03,8.12-.09,11.42Z"/><path class="g" d="M117.89,97.98c.53-1.77,1.07-3.55,1.6-5.32,.96-3.22,1.93-6.43,2.87-9.65,.14-.49,.33-.67,.86-.66,2.97,.03,5.93,.03,8.9,0,.64,0,.67,.16,.5,.7-1.94,5.84-3.86,11.68-5.81,17.51-.16,.48-.19,.9-.04,1.38,2.14,7.14,4.26,14.29,6.4,21.43,.19,.64,.19,.86-.58,.86-3.23-.04-6.47-.03-9.7,0-.57,0-.82-.14-.96-.73-1.27-5.29-2.57-10.56-3.87-15.84-.05-.22-.13-.44-.3-.64v11.74c0,1.6-.01,3.21,0,4.81,0,.46-.06,.66-.6,.66-3.23-.03-6.47-.02-9.7,0-.49,0-.63-.14-.63-.63,.01-13.54,.01-27.09,0-40.63,0-.44,.1-.6,.57-.6,3.26,.02,6.52,.03,9.78,0,.68,0,.56,.38,.56,.77,0,4.94,0,9.88,0,14.83l.14,.05Z"/><path class="g" d="M61.63,82.36c2.41,0,4.81,.01,7.22-.01,.54,0,.71,.15,.79,.7,1.35,9.21,2.74,18.42,4.11,27.63,.64,4.3,1.27,8.6,1.93,12.9,.07,.48,0,.65-.54,.65-3.31-.02-6.63-.03-9.94,0-.59,0-.64-.28-.67-.71-.15-2.08-.34-4.15-.47-6.23-.03-.46-.16-.59-.6-.57-.91,.03-1.82,.03-2.73,0-.45-.02-.57,.12-.6,.57-.16,2.1-.4,4.2-.55,6.3-.04,.55-.24,.63-.72,.63-3.31-.02-6.63-.02-9.94,0-.55,0-.68-.16-.61-.68,.46-3.36,.9-6.72,1.35-10.08,.73-5.48,1.45-10.95,2.18-16.43,.62-4.68,1.26-9.36,1.86-14.05,.07-.53,.24-.64,.73-.64,2.41,.02,4.81,0,7.22,0Zm.5,10.27c-.86,5.31-1.58,10.65-2.07,16.01-.05,.54,.11,.63,.58,.61,.77-.03,1.55-.06,2.32,0,.69,.06,.76-.22,.69-.81-.39-3.69-.75-7.38-1.1-11.07-.15-1.59-.28-3.18-.42-4.76Z"/><path class="g" d="M88.14,104.01c.04,3.23-.08,7.16,.08,11.08,.02,.45,.08,.9,.15,1.35,.19,1.09,.67,1.51,1.71,1.51,1.06,0,1.56-.39,1.76-1.47,.2-1.11,.23-2.23,.23-3.35,0-1.71,.01-3.42-.01-5.13,0-.43,.09-.59,.56-.59,3.26,.02,6.52,.01,9.78,.01,.27,0,.58-.1,.58,.39,0,3.07,.01,6.14-.58,9.17-.68,3.52-3.04,5.67-6.15,6.94-4.34,1.78-8.78,1.59-13.09-.19-3.48-1.43-5.09-4.27-5.54-7.9-.27-2.2-.38-4.41-.39-6.63-.01-4.09-.02-8.17,0-12.26,0-2.03,.01-4.06,.24-6.08,.38-3.36,2.02-6.01,4.99-7.56,4.99-2.61,10.12-2.54,15.15-.09,3.1,1.51,4.63,4.17,5.04,7.58,.36,3.09,.28,6.18,.32,9.28,0,.45-.16,.52-.55,.52-3.26-.01-6.52-.02-9.78,0-.54,0-.59-.19-.59-.64,.01-2.78,0-5.56-.02-8.33,0-.53-.07-1.06-.14-1.59-.15-.99-.62-1.39-1.61-1.42-1.09-.03-1.68,.38-1.88,1.34-.28,1.32-.24,2.66-.25,3.99-.03,3.13-.01,6.25-.01,10.07Z"/><path class="g" d="M213.25,109.76c-.2,1.44-.38,2.89-.59,4.33-.48,3.22-.98,6.43-1.44,9.65-.06,.39-.22,.47-.57,.47-3.21,0-6.41-.02-9.62,0-.58,0-.49-.26-.43-.64,.79-4.6,1.56-9.2,2.34-13.8,.49-2.87,.98-5.73,1.46-8.6,.11-.68-.17-1.31-.31-1.96-1.13-5.35-2.28-10.69-3.44-16.02-.14-.66-.03-.86,.68-.85,2.99,.04,5.99,.04,8.98,0,.63,0,.79,.23,.9,.78,.65,3.35,1.33,6.69,2,10.03,0,.01,.04,.01,.16,.04,.35-1.7,.7-3.4,1.05-5.1,.35-1.7,.7-3.39,1.03-5.1,.09-.46,.24-.66,.76-.65,2.62,.03,5.24,.03,7.86,0,.53,0,.7,.1,.58,.67-1.21,5.74-2.39,11.48-3.59,17.22-.09,.43-.07,.83,.04,1.26,1.82,7.35,3.63,14.7,5.45,22.04,.13,.54,.04,.69-.53,.68-2.91-.03-5.82-.03-8.74,0-.57,0-.78-.18-.92-.7-1.22-4.53-2.17-9.13-3.11-13.76Z"/><path class="g" d="M29.23,103.25c0-6.7,0-13.41-.02-20.11,0-.64,.17-.8,.8-.79,3.07,.03,6.14,.04,9.22,0,.71,0,.93,.15,.93,.9-.03,10.55-.01,21.1-.04,31.65,0,.72,.16,.94,.9,.92,1.71-.06,3.42,0,5.13-.03,.49,0,.63,.12,.63,.62-.03,2.4-.03,4.81,0,7.21,0,.52-.19,.61-.65,.61-5.4-.01-10.79-.02-16.19,0-.65,0-.72-.24-.72-.79,.02-6.73,.01-13.46,.01-20.19Z"/><path class="d" d="M140.67,12.54c2.01,.08,3.99,.41,5.86,1.17,.58,.24,.77,.05,1.04-.42,2.95-5.17,7.07-9.09,12.57-11.42,6.45-2.72,12.84-2.45,19.12,.62,.82,.4,1.64,.79,2.43,1.26-.75,.09-1.42-.17-2.11-.29-7.93-1.41-15.04,.16-21.11,5.7-7.95,7.25-8.89,18.91-2.08,27.21,4.88,5.94,11.3,8.52,18.9,8.41,.88-.01,1.76,0,2.64,.01,.03,0,.07,.07,.16,.17-1.17,.8-2.46,1.28-3.82,1.51-9.77,1.7-19.88-2.25-25.15-10.03-2.72-4.02-4.16-8.51-4.1-13.41,.02-1.93,.48-3.81,.98-5.66,.22-.81,0-1.07-.78-1.22-1.54-.3-3.07-.7-4.6-1.06,.01-.85,.03-1.71,.04-2.56Z"/><path class="d" d="M54.28,8.18c-.97-.18-1.93-.4-2.91-.54-10.05-1.44-18.69,5-20.77,13.5-1.28,5.21,.06,9.9,3.4,14.01,2.92,3.6,6.72,5.83,11.33,6.47,1.76,.25,3.57,.18,5.35,.27,.25,.01,.64-.09,.72,.2,.1,.38-.35,.4-.58,.52-2.14,1.12-4.47,1.41-6.84,1.36-8.57-.19-15.03-4.06-18.97-11.63-3.04-5.84-2.25-11.74,.93-17.36,2.56-4.52,6.32-7.68,11.36-9,2.76-.72,5.6-1.41,8.53-1,2.28,.31,4.38,1.12,6.46,2.05,.69,.31,1.37,.63,2.06,.94l-.07,.2Z"/><path class="i" d="M140.67,12.54c-.01,.85-.03,1.71-.04,2.56-.71,4.9-2.17,9.61-3.82,14.26-2.2,6.18-5.13,12-8.79,17.45-.63,.94-1.36,1.78-2.17,2.56-.33,.32-.59,.43-1,.06-1.37-1.23-1.56-.74-.62-2.7,2.11-4.43,4.24-8.85,5.44-13.63,1.01-3.98,1.54-8.06,2.16-12.12,.02-.16,.04-.32,.06-.48,.3-1.89,.1-2.26-1.66-2.97-.25-.1-.5-.18-.75-.28-1.8-.68-1.99-.99-1.74-2.92,.02-.16,.03-.32,.04-.48,.08-.87,.15-1.74,.23-2.61,.2-.41,.22-.87,.31-1.31,.18-.94,.55-1.33,1.48-1.37,2.79-.12,5.58-.25,8.37,0,1.36,.13,1.78,.5,2.17,1.83,.2,.69,.25,1.41,.33,2.12Z"/><path class="e" d="M179.98,32.1c-3.19-.1-5.97-1.12-7.92-3.78-2.63-3.58-1.4-8.95,2.5-11.07,1.18-.64,2.42-1.16,3.73-1.4,3.35-.61,6.27,.42,8.58,2.83,2.2,2.3,2.68,5.17,1.56,8.11-1.29,3.39-4.08,4.9-7.57,5.3-.29,.03-.59,0-.88,0Z"/><path class="d" d="M174.1,37.74c-7.63,0-13.86-4.89-15.24-11.53-1.15-5.54,1.59-11.69,6.83-14.73,4.02-2.34,8.37-2.91,12.88-1.48,.92,.29,1.78,.72,2.52,1.36,.21,.18,.59,.34,.44,.67-.13,.28-.48,.1-.73,.08-3.5-.23-6.81,.4-9.83,2.25-6.53,4.01-7.48,11.85-2.14,17.36,2.49,2.57,5.57,3.75,9.06,4.08,.29,.03,.58,.07,.87,.13,.27,.06,.74-.09,.79,.2,.07,.39-.43,.47-.72,.62-1.66,.86-3.47,.98-4.72,1Z"/><path class="h" d="M76.31,47.35c1.1,.14,1.92,.67,2.76,1.11,4.01,2.1,7.65,4.67,10.47,8.27,1.13,1.45,1.12,1.44-.08,2.76-.62,.68-1.2,1.39-1.49,2.35,.4-.23,.8-.46,1.2-.69,4.16-2.41,8.52-4.41,12.82-6.54,1.46-.72,2.9-1.48,4.37-2.17,.57-.27,1.2-.43,1.82-.6,.23-.06,.58-.18,.72,.11,.17,.34-.19,.45-.4,.59-1.3,.89-2.6,1.77-3.9,2.66-3.66,2.5-7.28,5.06-10.34,8.31-2.12,2.25-3.94,4.7-5.01,7.64-.19,.52-.44,.74-1.04,.73-2.22-.04-4.43-.03-6.65,0-.71,0-.88-.18-.62-.88,.78-2.07,1.85-3.96,3.31-5.62,.37-.43,.41-.73,.15-1.25-2.68-5.42-5.32-10.87-7.97-16.31-.05-.11-.06-.25-.12-.47Z"/><path class="d" d="M50.53,35.06c-.46,.58-1.12,.87-1.8,1.08-7.23,2.3-14.11-2.62-15.42-8.46-1.37-6.12,2.27-12.09,8.56-13.84,3.45-.96,6.71-.59,9.72,1.45,.2,.14,.59,.24,.48,.55-.1,.28-.47,.15-.73,.16-2.16,.06-4.31,.12-6.31,1.17-4.62,2.43-6.42,8.45-3.82,12.87,1.18,2,3.06,3.07,5.16,3.82,1.18,.42,2.4,.7,3.63,.96,.18,.04,.38,.02,.53,.24Z"/><path class="i" d="M101.31,42.07c2.3,.12,4.64,.57,6.26,2.67,1.11,1.44,1.45,3.12,1.34,4.9-.04,.74-.54,1.11-1.16,1.38-3.73,1.64-7.44,3.33-11.1,5.13-.81,.4-1.61,.83-2.44,1.2-1.11,.5-1.64,.28-2.12-.8-1.98-4.47-1.22-8.72,2.14-11.76,1.96-1.77,4.29-2.64,7.08-2.72Z"/><path class="i" d="M70.26,17.43c.29-.49,.29-1.07,.45-1.6,.19-.64,.56-1.06,1.21-1.11,2.04-.15,4.06-.57,6.12-.29,.89,.12,1.71,.38,2.45,.87-.21,1.01-.03,1.98,.37,2.92,.18,1.5-.47,2.43-1.92,2.87-1.05,.32-1.81,1.02-2.26,2.01-2.33,5.07-3.66,10.28-2.12,15.88,.3,1.1,.31,1.98,.04,2.77-.56-.54-.86-1.22-1.19-1.88-1.71-3.43-2.51-7.11-2.98-10.89-.36-2.9-.23-5.8-.22-8.7,.05-.96,.16-1.91,.07-2.87Z"/><path class="d" d="M80.85,18.23c-.4-.94-.58-1.9-.37-2.92,5.69-.93,11.38-1.82,17.1-2.54,5.83-.73,11.67-1.31,17.54-1.54,4.3-.17,8.59-.18,12.89,.04-.08,.87-.15,1.74-.23,2.61-7.34-.09-14.67-.1-22,.46-4.68,.36-9.3,1.23-13.93,1.98-3.18,.51-6.37,1.01-9.56,1.5-.51,.08-.99,.22-1.45,.42Z"/><path class="i" d="M62.81,142.4c0,1.23,.01,2.46,0,3.69-.03,2.23-1.63,3.82-3.86,3.85-.64,0-1.29,.05-1.92-.05-1.88-.28-3.17-1.79-3.21-3.82-.05-2.54-.05-5.08,0-7.61,.04-2.18,1.7-3.71,3.9-3.72,.59,0,1.18-.05,1.76,.02,1.92,.23,3.29,1.8,3.33,3.8,.02,1.28,0,2.56,0,3.85Zm-3.8-.05c0-1.39,0-2.78,0-4.16,0-.46-.05-.89-.63-.92-.63-.03-.73,.42-.74,.91,0,2.78,0,5.55,0,8.33,0,.5,.12,.95,.73,.93,.54-.02,.65-.44,.65-.92-.01-1.39,0-2.78,0-4.16Z"/><path class="d" d="M175.84,141.61c0-1.92,.03-3.84-.02-5.76-.02-.68,.2-.89,.86-.84,.58,.05,1.18,.03,1.76,0,.48-.02,.68,.17,.68,.65,0,4.49,0,8.98,0,13.47,0,.39-.14,.52-.52,.51-.69-.02-1.39-.05-2.08,0-.55,.04-.74-.2-.86-.68-.53-2.12-1.09-4.23-1.64-6.35-.05-.2-.05-.42-.33-.64,0,2.11,0,4.15,0,6.18q0,1.47-1.45,1.47-1.76,0-1.76-1.73c0-4.03,.01-8.07-.02-12.1,0-.64,.17-.87,.8-.79,.32,.04,.64,0,.96,0,1.84,.04,1.34-.29,1.89,1.44,.55,1.71,1.02,3.45,1.53,5.18l.19-.04Z"/><path class="f" d="M151.94,141.53c0-1.86,.03-3.73-.02-5.59-.02-.72,.16-1.02,.92-.93,.61,.07,1.23,.03,1.84,0,.4-.02,.56,.1,.56,.54-.02,4.51-.03,9.02-.03,13.54,0,.42-.14,.6-.55,.55-.03,0-.05,0-.08,0-.85-.02-1.87,.24-2.51-.14-.62-.37-.52-1.49-.74-2.28-.43-1.57-.82-3.15-1.23-4.72-.05-.2-.12-.39-.33-.56,0,2.3-.02,4.6,.01,6.9,0,.59-.09,.88-.77,.81-.77-.08-1.79,.24-2.25-.15-.53-.45-.17-1.5-.17-2.29-.02-3.82,0-7.64-.02-11.45,0-.61,.17-.79,.77-.75,.8,.06,1.76-.23,2.35,.13,.61,.37,.55,1.43,.79,2.19,.44,1.39,.83,2.8,1.24,4.2h.2Z"/><path class="i" d="M45.87,141.86c2.61,.6,2.2,2.58,2.32,4.25,.07,.98-.07,1.97-.08,2.96,0,.45-.17,.61-.62,.59-.72-.03-1.45-.05-2.16,0-.67,.05-.86-.17-.82-.86,.09-1.73,.11-3.47-.07-5.2-.04-.43-.22-.6-.61-.68-.48-.1-.68,0-.67,.54,.03,1.82-.02,3.63,.03,5.45,.01,.62-.19,.78-.77,.74-.8-.05-1.6-.03-2.4,0-.39,.01-.56-.08-.56-.53,.01-4.52,0-9.03,0-13.55,0-.27-.04-.54,.38-.55,1.81-.05,3.64-.24,5.43,.09,2.31,.43,2.78,1.01,2.74,4.21-.02,1.24-.49,2.24-2.14,2.54Zm-2.7-2.91c0,.29-.02,.59,0,.87,.03,.28-.18,.72,.3,.78,.41,.05,.83-.16,.95-.58,.21-.69,.22-1.42-.02-2.11-.15-.42-.56-.58-.98-.5-.43,.09-.21,.48-.24,.73-.03,.26,0,.53,0,.79Z"/><path class="e" d="M114.76,141.86c1.68,.38,2.18,1.43,2.17,2.83,0,1.47-.02,2.93,0,4.4,0,.41-.11,.57-.54,.56-.8-.03-1.6-.04-2.4,0-.5,.02-.64-.14-.63-.63,.03-1.65,0-3.31,.01-4.96,0-.41-.02-.81-.42-1.06-.54-.33-.97-.07-.97,.58,.01,1.71,.02,3.41,.08,5.12,.02,.7-.13,1.03-.91,.96-.74-.07-1.49-.03-2.24,0-.39,.01-.58-.08-.58-.52,.01-4.51,.01-9.02,0-13.53,0-.47,.19-.58,.62-.57,1.57,.03,3.15-.01,4.72,.05,2.31,.09,3.25,1.14,3.17,3.46-.01,.45-.05,.91-.11,1.35-.16,1.2-.59,1.66-1.97,1.97Zm-1.39-3.01c0-.24,.08-.68-.2-1.06-.23-.3-.55-.45-.91-.38-.43,.08-.28,.46-.28,.72,0,.64,.04,1.28,.03,1.91-.01,.59,.32,.62,.73,.46,.7-.27,.65-.89,.64-1.66Z"/><path class="h" d="M28.91,142.33c0,1.41,0,2.83,0,4.24,0,.4,0,.85,.58,.85,.59,0,.57-.43,.58-.84,.01-.88,.06-1.76,.06-2.64,0-.43,.09-.63,.57-.61,.88,.03,1.76,.03,2.64,0,.4-.01,.59,.12,.6,.53,.02,1.15,.02,2.3-.3,3.41-.11,.38-.29,.75-.5,1.08-.85,1.32-3,1.95-5,1.49-1.66-.38-2.75-1.48-2.92-3.19-.26-2.71-.33-5.44-.03-8.15,.38-3.43,4.21-5.12,7.08-3.16,1.04,.71,1.41,1.78,1.56,2.95,.34,2.59,.33,2.59-2.24,2.59q-1.39,0-1.45-1.4c-.03-.56-.06-1.12-.07-1.68,0-.41-.19-.54-.6-.55-.44-.01-.56,.2-.56,.58,0,1.5,0,2.99,0,4.49Z"/><path class="d" d="M126.92,135.03c.75,0,1.5,.02,2.24,0,.41-.01,.54,.13,.6,.54,.6,4.49,1.22,8.98,1.85,13.47,.07,.46-.02,.63-.51,.62-.91-.03-1.82-.02-2.72,0-.41,0-.57-.14-.56-.56,0-.42-.07-.85-.08-1.28-.02-.45-.04-.78-.68-.79-.68,0-.7,.33-.74,.82-.16,1.8-.17,1.8-1.95,1.8-2.06,0-2.02,0-1.75-2.05,.53-3.94,1.03-7.88,1.49-11.83,.08-.66,.32-.79,.9-.75,.64,.04,1.28,0,1.92,0Zm.1,3.21h-.11c-.12,1.37-.24,2.73-.37,4.09-.05,.58-.11,1.16-.16,1.75-.05,.55,.37,.4,.65,.4,.27,0,.63,.11,.58-.39-.2-1.95-.4-3.9-.61-5.85Z"/><path class="h" d="M84.3,144.3q1.75,.04,1.81,1.78c.01,.32,.01,.64,.03,.96,.02,.26,.12,.47,.41,.51,.3,.04,.51-.1,.64-.37,.43-.88,.23-2.08-.48-2.83-.57-.61-1.32-.99-2-1.45-1.53-1.05-2.41-2.42-2.32-4.37,.11-2.3,1.28-3.59,3.59-3.79,.48-.04,.96-.04,1.44,0,2.42,.21,3.64,1.72,3.38,4.12-.04,.39-.2,.49-.56,.49-.77-.01-1.55-.03-2.32,0-.48,.02-.61-.2-.61-.61,0-.35,0-.69-.01-1.04-.01-.34-.19-.55-.54-.57-.34-.02-.56,.15-.63,.49-.16,.74-.07,1.42,.48,2.01,.59,.63,1.3,1.1,2.02,1.57,2.37,1.55,2.79,3.25,2.26,6.36-.14,.82-.67,1.47-1.44,1.82-1.57,.71-3.2,.84-4.84,.32-1.2-.38-1.87-1.26-2.02-2.53-.09-.72-.1-1.44-.13-2.16-.02-.57,.17-.77,.72-.71,.37,.04,.75,0,1.12,0Z"/><path class="h" d="M70.28,144.3c2.18,.09,1.64-.37,1.83,1.84,.03,.29,0,.59,0,.88,0,.32,.1,.5,.45,.52,.31,.01,.54,0,.68-.37,.42-1.17,.09-2.4-.95-3.22-.61-.48-1.28-.87-1.89-1.34-1.89-1.47-2.49-3.62-1.63-5.87,.56-1.46,1.85-1.81,3.21-1.99,.72-.09,1.44-.01,2.15,.13,1.84,.37,2.49,1.09,2.67,2.95q.14,1.51-1.34,1.51c-.11,0-.21,0-.32,0-.53-.02-1.15,.12-1.57-.1-.53-.28-.17-.98-.24-1.49-.05-.35-.19-.55-.52-.6-.37-.05-.59,.12-.71,.49-.31,.95,.06,1.9,1.04,2.53,.92,.59,1.88,1.12,2.65,1.91,.79,.8,1.22,1.74,1.22,2.86,0,.43,0,.85,0,1.28,0,2.09-.98,3.3-3.01,3.69-.93,.18-1.86,.17-2.78-.01-1.58-.32-2.34-1.11-2.63-2.71-.06-.34-.09-.69-.1-1.03q-.05-1.85,1.79-1.85Z"/><path class="f" d="M70.26,17.43c.09,.96-.02,1.91-.07,2.87-7.98,1.78-15.95,3.62-23.82,5.88-.75,.21-.99,.03-1.23-.67-.68-2.02-.61-1.6,1.09-2.05,5.56-1.48,11.12-2.97,16.69-4.39,2.42-.62,4.89-1.1,7.33-1.64Z"/><path class="f" d="M96.88,143.85c0-1.71-.02-3.42,.01-5.12,0-.5-.11-.69-.65-.69-1.58,0-1.58-.02-1.58-1.62q0-1.39,1.37-1.39c2.06,0,4.11,.02,6.17-.01,.57,0,.77,.19,.74,.72,0,.16,.02,.32,.01,.48-.05,.58,.28,1.29-.1,1.7-.36,.38-1.07,.14-1.62,.13-.62-.02-.53,.36-.53,.73,0,3.34-.02,6.67,.02,10.01,0,.7-.16,.95-.88,.88-.77-.07-1.55-.05-2.32,0-.55,.03-.66-.18-.65-.68,.03-1.71,.01-3.42,.01-5.12Z"/><path class="h" d="M114.68,58.01c0,1.07-.31,1.95-.53,2.83-.88,3.55-2.12,6.98-3.67,10.3-.25,.53-.56,.75-1.17,.73-1.39-.04-2.78,0-4.17,0-.19,0-.46,.12-.58-.12-.09-.2,.1-.34,.2-.49,1.23-1.76,1.92-3.73,2.22-5.85,.19-1.33,.89-2.38,1.86-3.27,1.28-1.19,2.83-2,4.25-2.99,.49-.35,.98-.71,1.58-1.15Z"/><path class="e" d="M137.1,142.24c0-2.16,.02-4.33-.02-6.49-.01-.62,.18-.78,.77-.74,.8,.05,1.6,.03,2.4,0,.38-.01,.57,.06,.57,.51-.02,4.54-.01,9.08,0,13.62,0,.39-.13,.51-.51,.5-.85-.02-1.71-.04-2.56,0-.55,.03-.66-.18-.66-.68,.02-2.24,.01-4.49,.01-6.73Z"/><path class="e" d="M160.95,142.31c0-2.16,.02-4.32-.01-6.48,0-.59,.11-.87,.78-.82,.77,.06,1.55,.06,2.32,0,.64-.05,.75,.21,.74,.78-.02,4.37-.02,8.75,0,13.12,0,.53-.12,.77-.7,.74-.8-.05-1.6-.05-2.4,0-.64,.05-.75-.21-.74-.78,.03-2.19,.01-4.37,.01-6.56Z"/></g><path class="d" d="M192.37,148.76c0,.45-.17,.6-.59,.61-.34,0-.68,.06-1.02,.07-.62,.02-1.13-.1-1.05-1.07-.98,.9-1.92,1.41-3.06,1.33-1.82-.13-3.07-1.56-3.1-3.56-.04-2.5-.05-5-.02-7.51,.03-2.47,1.19-3.73,3.65-4.01,.87-.1,1.74-.05,2.59,.14,1.44,.33,2.24,1.35,2.43,3.12q.26,2.43-2.17,2.34c-1.47-.05-1.48-.05-1.47-1.49,0-.37,0-.74-.12-1.1-.1-.29-.24-.55-.6-.51-.37,.04-.54,.29-.55,.66-.05,2.21-.13,4.42-.09,6.63,0,.29,.07,1.02,.08,1.31s0,.6,.07,.89c.07,.32,.3,.49,.65,.47,.3-.01,.53-.28,.54-.58,.03-.8,.06-1.59,.09-2.39,.01-.25-.1-.38-.3-.51-.09-.06-.2-.07-.34-.1h-.1v-1.78c0-.09,.08-.17,.17-.17h1.43c.75,0,1.51,0,2.26,0,.44,0,.6,.11,.6,.57-.02,2.21-.02,4.42,0,6.64Z"/></g></g></g></svg>